HIERARCHY
ROOT hip
{
	OFFSET 0.000000 0.000000 0.000000
	CHANNELS 6 Xposition Yposition Zposition Zrotation Yrotation Xrotation 
	JOINT lhipjoint
	{
		OFFSET 0.000000 0.000000 0.000000
		CHANNELS 3 Zrotation Yrotation Xrotation
		JOINT lfemur
		{
			OFFSET 1.363060 -1.794630 0.839290
			CHANNELS 3 Zrotation Yrotation Xrotation
			JOINT ltibia
			{
				OFFSET 2.448110 -6.726130 0.000000
				CHANNELS 3 Zrotation Yrotation Xrotation
				JOINT lfoot
				{
					OFFSET 2.562200 -7.039590 0.000000
					CHANNELS 3 Zrotation Yrotation Xrotation
					JOINT ltoes
					{
						OFFSET 0.157640 -0.433110 2.322550
						CHANNELS 3 Zrotation Yrotation Xrotation
						End Site
						{
							OFFSET 0.000000 0.000000 0.000000
						}
					}
				}
			}
		}
	}
	JOINT rhipjoint
	{
		OFFSET 0.000000 0.000000 0.000000
		CHANNELS 3 Zrotation Yrotation Xrotation
		JOINT rfemur
		{
			OFFSET -1.305520 -1.794630 0.839290
			CHANNELS 3 Zrotation Yrotation Xrotation
			JOINT rtibia
			{
				OFFSET -2.542530 -6.985550 0.000000
				CHANNELS 3 Zrotation Yrotation Xrotation
				JOINT rfoot
				{
					OFFSET -2.568260 -7.056230 0.000000
					CHANNELS 3 Zrotation Yrotation Xrotation
					JOINT rtoes
					{
						OFFSET -0.164730 -0.452590 2.363150
						CHANNELS 3 Zrotation Yrotation Xrotation
						End Site
						{
							OFFSET 0.000000 0.000000 0.000000
						}
					}
				}
			}
		}
	}
	JOINT lowerback
	{
		OFFSET 0.000000 0.000000 0.000000
		CHANNELS 3 Zrotation Yrotation Xrotation
		JOINT upperback
		{
			OFFSET 0.028270 2.035590 -0.193380
			CHANNELS 3 Zrotation Yrotation Xrotation
			JOINT thorax
			{
				OFFSET 0.056720 2.048850 -0.042750
				CHANNELS 3 Zrotation Yrotation Xrotation
				JOINT lowerneck
				{
					OFFSET 0.000000 0.000000 0.000000
					CHANNELS 3 Zrotation Yrotation Xrotation
					JOINT upperneck
					{
						OFFSET -0.054170 1.746240 0.172020
						CHANNELS 3 Zrotation Yrotation Xrotation
						JOINT head
						{
							OFFSET 0.104070 1.761360 -0.123970
							CHANNELS 3 Zrotation Yrotation Xrotation
							End Site
							{
								OFFSET 0.000000 0.000000 0.000000
							}
						}
					}
				}
				JOINT lclavicle
				{
					OFFSET 0.000000 0.000000 0.000000
					CHANNELS 3 Zrotation Yrotation Xrotation
					JOINT lhumerus
					{
						OFFSET 3.362410 1.200890 -0.311210
						CHANNELS 3 Zrotation Yrotation Xrotation
						JOINT lradius
						{
							OFFSET 4.983000 -0.000000 -0.000000
							CHANNELS 3 Zrotation Yrotation Xrotation
							JOINT lwrist
							{
								OFFSET 3.483560 -0.000000 -0.000000
								CHANNELS 3 Zrotation Yrotation Xrotation
								JOINT lhand
								{
									OFFSET 0.000000 0.000000 0.000000
									CHANNELS 3 Zrotation Yrotation Xrotation
									JOINT lfingers
									{
										OFFSET 0.715260 -0.000000 -0.000000
										CHANNELS 3 Zrotation Yrotation Xrotation
										End Site
										{
											OFFSET 0.000000 0.000000 0.000000
										}
									}
								}
								JOINT lthumb
								{
									OFFSET 0.000000 0.000000 0.000000
									CHANNELS 3 Zrotation Yrotation Xrotation
									End Site
									{
										OFFSET 0.000000 0.000000 0.000000
									}
								}
							}
						}
					}
				}
				JOINT rclavicle
				{
					OFFSET 0.000000 0.000000 0.000000
					CHANNELS 3 Zrotation Yrotation Xrotation
					JOINT rhumerus
					{
						OFFSET -3.136600 1.374050 -0.404650
						CHANNELS 3 Zrotation Yrotation Xrotation
						JOINT rradius
						{
							OFFSET -5.241900 -0.000000 -0.000000
							CHANNELS 3 Zrotation Yrotation Xrotation
							JOINT rwrist
							{
								OFFSET -3.444170 -0.000000 -0.000000
								CHANNELS 3 Zrotation Yrotation Xrotation
								JOINT rhand
								{
									OFFSET 0.000000 0.000000 0.000000
									CHANNELS 3 Zrotation Yrotation Xrotation
									JOINT rfingers
									{
										OFFSET -0.622530 -0.000000 -0.000000
										CHANNELS 3 Zrotation Yrotation Xrotation
										End Site
										{
											OFFSET 0.000000 0.000000 0.000000
										}
									}
								}
								JOINT rthumb
								{
									OFFSET 0.000000 0.000000 0.000000
									CHANNELS 3 Zrotation Yrotation Xrotation
									End Site
									{
										OFFSET 0.000000 0.000000 0.000000
									}
								}
							}
						}
					}
				}
			}
		}
	}
}
MOTION
Frames: 10
Frame Time: 0.008333
1.147048 16.654191 2.169762 154.055617 3.802385 179.253023 -6.674975 -4.430662 -1.533077 -4.343579 1.286922 -14.727966 7.421184 16.335471 49.599402 0.226442 4.570537 4.943697 0.351900 -3.811200 -10.546000 7.229129 4.762486 -1.777754 -17.892662 3.373126 -15.649445 -6.283915 -16.005795 48.042898 -0.519779 20.411953 -16.113220 -0.354800 3.827100 -10.590700 13.468099 -5.265399 10.486628 2.348257 -4.130763 -2.199125 -6.071825 -0.299248 11.532964 -2.383788 4.163654 -11.781553 -16.451300 14.474399 13.062643 -6.184100 7.723900 5.151400 -7.415508 -2.995806 3.316679 -24.619565 -5.412560 -1.572909 80.207103 -58.584272 -56.329139 -0.315160 0.278714 34.801674 59.924619 -17.090635 -27.142900 -7.125000 0.000000 0.000000 19.746600 -0.116900 -21.078800 7.688447 5.665847 3.997255 71.161106 -21.897827 -24.569874 -10.091808 24.785015 -3.387732 0.213678 -1.543077 -23.708072 -12.489735 6.295051 -1.671200 7.125000 0.000000 0.000000 10.704300 -22.012500 6.015000 
1.140509 16.660909 2.178003 154.244623 4.023347 179.370035 -6.592313 -4.346667 -1.540187 -5.629416 0.742039 -14.725455 7.448144 16.298607 49.538108 0.078721 5.493766 2.470910 0.412600 -4.123400 -11.424100 7.078211 4.654222 -1.776755 -17.370517 4.159230 -15.723663 -6.339301 -15.976751 48.026908 -0.581625 19.853604 -16.445041 -0.370300 3.908800 -10.820100 13.495891 -5.254044 10.467453 2.356201 -4.118865 -2.186805 -6.121053 -0.283219 11.601127 -2.347212 4.113658 -11.967360 -16.490752 14.496784 13.236126 -6.189300 7.712900 5.278700 -7.373550 -2.987955 3.274640 -25.276622 -5.550014 -1.042801 82.005334 -58.788065 -57.822615 -0.298787 0.301863 34.881071 59.712731 -17.841750 -27.984200 -7.125000 0.000000 0.000000 19.405300 -1.196900 -21.041900 7.611622 5.682941 4.006887 72.087282 -21.583926 -23.161169 -10.363671 25.421434 -3.476123 0.237003 -1.616791 -23.873019 -12.247763 6.033509 -1.596400 7.125000 0.000000 0.000000 10.898200 -22.207600 6.078600 
1.134059 16.668792 2.187767 154.433281 4.195032 179.509535 -6.516180 -4.260115 -1.546389 -6.902072 0.118600 -14.772016 7.467164 16.244113 49.439683 -0.042245 6.309222 0.123201 0.455400 -4.329100 -12.004500 6.938524 4.546504 -1.771223 -16.875779 4.876169 -15.818112 -6.387454 -15.944871 47.995303 -0.640714 19.291476 -16.760679 -0.388900 4.004700 -11.089800 13.545285 -5.229697 10.432201 2.355496 -4.098826 -2.176946 -6.225053 -0.259210 11.661039 -2.274731 4.061342 -12.105210 -16.497715 14.471124 13.371429 -6.201200 7.682400 5.370000 -7.330593 -2.982687 3.233981 -25.907399 -5.746385 -0.339149 83.716223 -58.949051 -59.206114 -0.277728 0.327893 34.695396 59.444052 -18.588344 -28.748100 -7.125000 0.000000 0.000000 19.029800 -2.229600 -20.927200 7.534033 5.699759 4.015757 73.023424 -21.283766 -21.733527 -10.663649 26.084188 -3.573293 0.261860 -1.695600 -23.944094 -12.096375 5.722506 -1.527200 7.125000 0.000000 0.000000 11.028700 -22.441900 6.093900 
1.127341 16.677392 2.197979 154.641527 4.357359 179.642129 -6.447380 -4.175888 -1.550119 -8.136370 -0.516413 -14.826350 7.473958 16.176365 49.297882 -0.128952 6.886469 -2.099885 0.510900 -4.581600 -12.718900 6.802701 4.444869 -1.766615 -16.380912 5.521771 -15.900681 -6.427538 -15.909381 47.938466 -0.686651 18.793398 -17.008031 -0.410800 4.114400 -11.398700 13.607508 -5.211022 10.425686 2.356492 -4.080172 -2.171764 -6.316714 -0.238721 11.679879 -2.262538 4.027677 -12.156033 -16.466172 14.433061 13.452310 -6.196700 7.653600 5.407200 -7.288946 -2.984136 3.201847 -26.557285 -5.922079 0.582659 85.321774 -59.061137 -60.473229 -0.255644 0.354477 34.604092 59.161986 -18.767753 -28.778200 -7.125000 0.000000 0.000000 18.806600 -2.404900 -20.709000 7.462054 5.709637 4.025401 73.860494 -20.980077 -20.318289 -10.954587 26.712405 -3.661721 0.290117 -1.768468 -23.896587 -11.895709 5.363744 -1.443600 7.125000 0.000000 0.000000 11.192900 -22.728700 6.113100 
1.121339 16.688052 2.208460 154.851589 4.495264 179.772002 -6.384976 -4.091359 -1.552234 -9.357188 -1.199631 -14.882647 7.470333 16.096097 49.117328 -0.175900 7.178872 -4.164039 0.569000 -4.830900 -13.426900 6.674268 4.351299 -1.763224 -15.900653 6.098369 -15.970884 -6.458151 -15.870032 47.855089 -0.730305 18.291097 -17.242322 -0.437100 4.242400 -11.759700 13.636632 -5.203465 10.434519 2.356689 -4.073857 -2.169886 -6.400311 -0.231036 11.679528 -2.192925 3.998257 -12.177859 -16.459372 14.394470 13.508437 -6.220300 7.627800 5.440400 -7.244971 -2.981021 3.175101 -27.200852 -6.056587 1.653068 86.830864 -59.132495 -61.642481 -0.232115 0.381680 34.431655 58.880755 -18.805039 -28.637400 -7.125000 0.000000 0.000000 18.622100 -2.376700 -20.473100 7.399826 5.720401 4.032889 74.625270 -20.669134 -18.854724 -11.248849 27.343835 -3.734426 0.309449 -1.819387 -23.661973 -11.382256 5.370878 -1.389600 7.125000 0.000000 0.000000 11.557500 -22.682400 6.332800 
1.115785 16.701757 2.218224 155.112885 4.666409 179.906489 -6.324829 -4.009225 -1.557041 -10.517274 -1.903382 -14.917839 7.455466 16.009036 48.904426 -0.188175 7.269036 -6.032357 0.611800 -5.006000 -13.925800 6.539393 4.255302 -1.760118 -15.369333 6.631530 -16.069952 -6.489084 -15.824844 47.758430 -0.758783 17.869834 -17.394943 -0.457900 4.340700 -12.037200 13.691769 -5.199525 10.439809 2.355239 -4.069887 -2.160399 -6.502360 -0.216119 11.716613 -2.063274 3.985572 -12.191986 -16.487631 14.364719 13.484091 -6.275700 7.609200 5.453100 -7.204841 -2.961881 3.152213 -27.829291 -6.140097 2.784492 88.268857 -59.175133 -62.743104 -0.209003 0.409353 34.111567 58.560158 -18.855117 -28.477100 -7.125000 0.000000 0.000000 18.412300 -2.344700 -20.206000 7.351257 5.721847 4.044263 75.289895 -20.307209 -17.194508 -11.602297 28.047370 -3.824197 0.336049 -1.872880 -23.704708 -10.882611 5.283957 -1.319400 7.125000 0.000000 0.000000 11.919700 -22.726000 6.527600 
1.110142 16.715015 2.228973 155.421382 4.829490 -179.975215 -6.268627 -3.929146 -1.559562 -11.599113 -2.602185 -14.949608 7.436333 15.920427 48.687582 -0.173070 7.202915 -7.669062 0.632500 -5.088600 -14.161500 6.396036 4.161878 -1.760268 -14.778805 7.120067 -16.155136 -6.521726 -15.779442 47.656209 -0.782746 17.473736 -17.522610 -0.488900 4.483400 -12.440800 13.771682 -5.202217 10.482163 2.359494 -4.063007 -2.153279 -6.576522 -0.202517 11.720339 -1.948222 3.955076 -12.136531 -16.564302 14.314916 13.412548 -6.355400 7.590300 5.435700 -7.164041 -2.942211 3.138459 -28.482028 -6.195341 4.022986 89.577170 -59.181577 -63.721447 -0.184582 0.439271 33.758665 58.261479 -18.876751 -28.309800 -7.125000 0.000000 0.000000 18.220500 -2.293500 -19.956000 7.317896 5.720962 4.057163 75.868416 -19.962922 -15.373247 -12.027664 28.824234 -3.928245 0.352720 -1.917171 -23.974570 -10.316234 5.492002 -1.288300 7.125000 0.000000 0.000000 12.318600 -22.492400 6.823600 
1.104051 16.726033 2.239364 155.789083 5.031089 -179.862081 -6.213913 -3.851610 -1.563241 -12.593077 -3.269932 -14.985985 7.413677 15.833165 48.471786 -0.134596 6.990403 -9.122211 0.646900 -5.145100 -14.322900 6.246104 4.061749 -1.756376 -14.131415 7.570844 -16.287042 -6.563530 -15.733998 47.574585 -0.802915 17.128072 -17.630981 -0.522700 4.633400 -12.865900 13.902441 -5.185467 10.537814 2.362014 -4.027334 -2.145183 -6.664382 -0.169266 11.728906 -1.821682 3.907877 -12.148263 -16.634360 14.264699 13.424776 -6.423100 7.563200 5.464700 -7.124284 -2.915898 3.127378 -29.166724 -6.256379 5.325063 90.703119 -59.155666 -64.530416 -0.158050 0.472732 33.531146 58.011521 -18.882230 -28.176800 -7.125000 0.000000 0.000000 18.058400 -2.259200 -19.748300 7.289071 5.720649 4.068528 76.370609 -19.633642 -13.389081 -12.448097 29.589804 -4.036773 0.355941 -1.965890 -24.349010 -10.044915 5.811579 -1.308900 7.125000 0.000000 0.000000 12.508100 -22.141800 7.036400 
1.097243 16.735528 2.250830 156.147499 5.210986 -179.735773 -6.166930 -3.771798 -1.564731 -13.561603 -3.931687 -15.071103 7.396334 15.748521 48.281622 -0.076296 6.630011 -10.411220 0.698200 -5.341300 -14.884800 6.109032 3.962492 -1.745194 -13.527519 7.975053 -16.455440 -6.606711 -15.689417 47.511230 -0.817104 16.832242 -17.694599 -0.547400 4.740100 -13.168700 14.005595 -5.174927 10.593773 2.367820 -4.000379 -2.145679 -6.716347 -0.149400 11.710337 -1.733897 3.856285 -12.221959 -16.689284 14.245472 13.546940 -6.463000 7.542800 5.551500 -7.085263 -2.889580 3.121501 -29.966076 -6.324516 6.583972 91.577882 -59.097259 -65.122841 -0.131173 0.511283 33.545087 57.858798 -18.880492 -28.133500 -7.125000 0.000000 0.000000 17.951900 -2.283500 -19.626900 7.268020 5.721832 4.076121 76.763756 -19.355343 -11.260667 -12.903989 30.373374 -4.160186 0.347078 -2.016943 -24.771928 -10.007332 6.262008 -1.379000 7.125000 0.000000 0.000000 12.530600 -21.657800 7.191400 
1.091510 16.744128 2.262744 156.516284 5.383182 -179.614451 -6.123693 -3.693874 -1.566636 -14.491233 -4.583950 -15.155676 7.379194 15.666257 48.100682 0.000248 6.133058 -11.600231 0.760400 -5.568800 -15.538400 5.974643 3.866798 -1.734490 -12.921525 8.348194 -16.624380 -6.649659 -15.644941 47.448711 -0.827608 16.589517 -17.738527 -0.571200 4.840100 -13.453000 14.087714 -5.157258 10.665214 2.374263 -3.957541 -2.143847 -6.737021 -0.124017 11.699209 -1.677946 3.803279 -12.320261 -16.724137 14.218474 13.659673 -6.489200 7.516400 5.634400 -7.046675 -2.862246 3.120356 -30.815207 -6.431931 7.853120 92.196818 -59.021333 -65.489366 -0.102260 0.552734 33.737049 57.787871 -18.874687 -28.167000 -7.125000 0.000000 0.000000 17.890500 -2.359900 -19.576100 7.251009 5.714263 4.083491 77.077233 -19.045107 -9.137925 -13.352086 31.117292 -4.281640 0.330235 -2.065738 -25.093175 -10.081169 6.771511 -1.473800 7.125000 0.000000 0.000000 12.473500 -21.116000 7.314300 
